<svg xmlns="http://www.w3.org/2000/svg" width="50" height="50" viewBox="0 0 50 50" fill="none">
  <path d="M25 50C38.8071 50 50 38.8071 50 25C50 11.1929 38.8071 0 25 0C11.1929 0 0 11.1929 0 25C0 38.8071 11.1929 50 25 50Z" fill="#0A66C2"/>
  <path d="M33.8428 34.3331H30.1318V28.5225C30.1318 27.1358 30.1025 25.3536 28.1982 25.3536C26.2646 25.3536 25.9668 26.8624 25.9668 28.42V34.3331H22.2559V22.38H25.8203V24.0108H25.8691C26.3672 23.0733 27.5781 22.0821 29.3848 22.0821C33.1445 22.0821 33.8379 24.5577 33.8379 27.7755L33.8428 34.3331ZM18.0713 20.7442C16.875 20.7442 15.918 19.7774 15.918 18.5909C15.918 17.4044 16.8799 16.4376 18.0713 16.4376C19.2627 16.4376 20.2246 17.4044 20.2246 18.5909C20.2246 19.7774 19.2578 20.7442 18.0713 20.7442ZM19.9316 34.3331H16.2109V22.38H19.9316V34.3331ZM35.6982 12.9854H14.3506C13.3301 12.9854 12.5 13.7911 12.5 14.7921V36.2276C12.5 37.2237 13.3252 38.0343 14.3506 38.0343H35.6934C36.7139 38.0343 37.5488 37.2286 37.5488 36.2276V14.7921C37.5488 13.7911 36.7139 12.9854 35.6982 12.9854Z" fill="white"/>
</svg>